HIERARCHY
ROOT Hips
{
  OFFSET 1.73907 43.2358 0.0522707
  CHANNELS 6 Xposition Yposition Zposition Zrotation Xrotation Yrotation
  JOINT Bip01_Pelvis
  {
    OFFSET 0 0 0
    CHANNELS 6 Xposition Yposition Zposition Zrotation Xrotation Yrotation
    JOINT BN_Tail_01
    {
      OFFSET -2.28979 -2.39917 0
      CHANNELS 6 Xposition Yposition Zposition Zrotation Xrotation Yrotation
      JOINT BN_Tail_02
      {
        OFFSET 9.67405 0 0
        CHANNELS 6 Xposition Yposition Zposition Zrotation Xrotation Yrotation
        JOINT BN_Tail_03
        {
          OFFSET 10.5192 0 -1.14441e-005
          CHANNELS 6 Xposition Yposition Zposition Zrotation Xrotation Yrotation
          JOINT BN_Tail_04
          {
            OFFSET 8.16754 0 0
            CHANNELS 6 Xposition Yposition Zposition Zrotation Xrotation Yrotation
            End Site
            {
              OFFSET 0 0 0
            }
          }
        }
      }
    }
    JOINT Bip01_Spine
    {
      OFFSET 2.25317 -0.00479889 0
      CHANNELS 6 Xposition Yposition Zposition Zrotation Xrotation Yrotation
      JOINT Bip01_R_Thigh
      {
        OFFSET -2.32652 -0.461891 -2.25534
        CHANNELS 6 Xposition Yposition Zposition Zrotation Xrotation Yrotation
        JOINT Bip01_R_Calf
        {
          OFFSET 9.47902 0 0
          CHANNELS 6 Xposition Yposition Zposition Zrotation Xrotation Yrotation
          JOINT Bip01_R_Foot
          {
            OFFSET 8.42616 0 0
            CHANNELS 6 Xposition Yposition Zposition Zrotation Xrotation Yrotation
            JOINT Bip01_R_Toe1
            {
              OFFSET 1.4015 3.97627 -1.33795
              CHANNELS 6 Xposition Yposition Zposition Zrotation Xrotation Yrotation
              JOINT Bip01_R_Toe11
              {
                OFFSET 2.94553 0 0
                CHANNELS 6 Xposition Yposition Zposition Zrotation Xrotation Yrotation
                JOINT Bip01_R_Toe1Nub
                {
                  OFFSET 2.52656 0 0
                  CHANNELS 6 Xposition Yposition Zposition Zrotation Xrotation Yrotation
                  End Site
                  {
                    OFFSET 0 0 0
                  }
                }
              }
            }
            JOINT Bip01_R_Toe0
            {
              OFFSET 2.09729 6.93129 0.0277901
              CHANNELS 6 Xposition Yposition Zposition Zrotation Xrotation Yrotation
              JOINT Bip01_R_Toe01
              {
                OFFSET 3.0714 0 0
                CHANNELS 6 Xposition Yposition Zposition Zrotation Xrotation Yrotation
                JOINT Bip01_R_Toe0Nub
                {
                  OFFSET 3.37999 0 0
                  CHANNELS 6 Xposition Yposition Zposition Zrotation Xrotation Yrotation
                  End Site
                  {
                    OFFSET 0 0 0
                  }
                }
              }
            }
          }
        }
      }
      JOINT Bip01_L_Thigh
      {
        OFFSET -2.07803 -0.462101 2.48614
        CHANNELS 6 Xposition Yposition Zposition Zrotation Xrotation Yrotation
        JOINT Bip01_L_Calf
        {
          OFFSET 9.47902 0 0
          CHANNELS 6 Xposition Yposition Zposition Zrotation Xrotation Yrotation
          JOINT Bip01_L_Foot
          {
            OFFSET 8.42617 0 0
            CHANNELS 6 Xposition Yposition Zposition Zrotation Xrotation Yrotation
            JOINT Bip01_L_Toe1
            {
              OFFSET 1.40151 3.97627 1.33796
              CHANNELS 6 Xposition Yposition Zposition Zrotation Xrotation Yrotation
              JOINT Bip01_L_Toe11
              {
                OFFSET 2.94554 0 0
                CHANNELS 6 Xposition Yposition Zposition Zrotation Xrotation Yrotation
                JOINT Bip01_L_Toe1Nub
                {
                  OFFSET 2.52656 0 0
                  CHANNELS 6 Xposition Yposition Zposition Zrotation Xrotation Yrotation
                  End Site
                  {
                    OFFSET 0 0 0
                  }
                }
              }
            }
            JOINT Bip01_L_Toe0
            {
              OFFSET 2.0973 6.93128 -0.0277834
              CHANNELS 6 Xposition Yposition Zposition Zrotation Xrotation Yrotation
              JOINT Bip01_L_Toe01
              {
                OFFSET 3.07141 0 0
                CHANNELS 6 Xposition Yposition Zposition Zrotation Xrotation Yrotation
                JOINT Bip01_L_Toe0Nub
                {
                  OFFSET 3.37999 0 0
                  CHANNELS 6 Xposition Yposition Zposition Zrotation Xrotation Yrotation
                  End Site
                  {
                    OFFSET 0 0 0
                  }
                }
              }
            }
          }
        }
      }
      JOINT Bip01_Spine1
      {
        OFFSET 6.17162 -0.00484467 0
        CHANNELS 6 Xposition Yposition Zposition Zrotation Xrotation Yrotation
        JOINT BN_R_Clavicle_01
        {
          OFFSET 6.15897 -2.02444 -2.78435
          CHANNELS 6 Xposition Yposition Zposition Zrotation Xrotation Yrotation
          JOINT BN_R_UpperArm_01
          {
            OFFSET 3.43915 0 0
            CHANNELS 6 Xposition Yposition Zposition Zrotation Xrotation Yrotation
            JOINT BN_R__Forearm_01
            {
              OFFSET 10.2529 0 0
              CHANNELS 6 Xposition Yposition Zposition Zrotation Xrotation Yrotation
              JOINT BN_R_Hand_01
              {
                OFFSET 16.2051 0 0
                CHANNELS 6 Xposition Yposition Zposition Zrotation Xrotation Yrotation
                JOINT BN_R_Finger_07
                {
                  OFFSET 2.2539 2.19923 0.192043
                  CHANNELS 6 Xposition Yposition Zposition Zrotation Xrotation Yrotation
                  End Site
                  {
                    OFFSET 0 0 0
                  }
                }
                JOINT BN_R_Finger_01
                {
                  OFFSET 2.17806 -1.99631 -0.219296
                  CHANNELS 6 Xposition Yposition Zposition Zrotation Xrotation Yrotation
                  End Site
                  {
                    OFFSET 0 0 0
                  }
                }
                JOINT BN_R_Finger_05
                {
                  OFFSET 3.30715 1.42802 0.17391
                  CHANNELS 6 Xposition Yposition Zposition Zrotation Xrotation Yrotation
                  End Site
                  {
                    OFFSET 0 0 0
                  }
                }
                JOINT BN_R_Finger_03
                {
                  OFFSET 3.93641 -0.769831 0.580946
                  CHANNELS 6 Xposition Yposition Zposition Zrotation Xrotation Yrotation
                  End Site
                  {
                    OFFSET 0 0 0
                  }
                }
              }
            }
          }
        }
        JOINT BN_L_Clavicle_01
        {
          OFFSET 6.15897 -2.02445 2.78458
          CHANNELS 6 Xposition Yposition Zposition Zrotation Xrotation Yrotation
          JOINT BN_L_UpperArm_01
          {
            OFFSET 3.43915 0 0
            CHANNELS 6 Xposition Yposition Zposition Zrotation Xrotation Yrotation
            JOINT BN_L__Forearm_01
            {
              OFFSET 10.2529 0 0
              CHANNELS 6 Xposition Yposition Zposition Zrotation Xrotation Yrotation
              JOINT BN_L_Hand_01
              {
                OFFSET 16.2051 0 0
                CHANNELS 6 Xposition Yposition Zposition Zrotation Xrotation Yrotation
                JOINT BN_L_Finger_05
                {
                  OFFSET 3.30715 -1.42803 0.173891
                  CHANNELS 6 Xposition Yposition Zposition Zrotation Xrotation Yrotation
                  End Site
                  {
                    OFFSET 0 0 0
                  }
                }
                JOINT BN_L_Finger_07
                {
                  OFFSET 2.2539 -2.19925 0.19203
                  CHANNELS 6 Xposition Yposition Zposition Zrotation Xrotation Yrotation
                  End Site
                  {
                    OFFSET 0 0 0
                  }
                }
                JOINT BN_L_Finger_01
                {
                  OFFSET 2.17804 1.99629 -0.219303
                  CHANNELS 6 Xposition Yposition Zposition Zrotation Xrotation Yrotation
                  End Site
                  {
                    OFFSET 0 0 0
                  }
                }
                JOINT BN_L_Finger_03
                {
                  OFFSET 3.9364 0.769825 0.580943
                  CHANNELS 6 Xposition Yposition Zposition Zrotation Xrotation Yrotation
                  End Site
                  {
                    OFFSET 0 0 0
                  }
                }
              }
            }
          }
        }
        JOINT Bip01_Neck
        {
          OFFSET 7.02381 -0.81237 0
          CHANNELS 6 Xposition Yposition Zposition Zrotation Xrotation Yrotation
          JOINT Bip01_Head
          {
            OFFSET 1.54249 1.14441e-005 0
            CHANNELS 6 Xposition Yposition Zposition Zrotation Xrotation Yrotation
            JOINT BN_Mouth_01
            {
              OFFSET 2.32836 0.166542 0
              CHANNELS 6 Xposition Yposition Zposition Zrotation Xrotation Yrotation
              End Site
              {
                OFFSET 0 0 0
              }
            }
            JOINT BN_R_Ear_01
            {
              OFFSET 3.4208 -0.773972 -2.25959
              CHANNELS 6 Xposition Yposition Zposition Zrotation Xrotation Yrotation
              End Site
              {
                OFFSET 0 0 0
              }
            }
            JOINT BN_L_Ear_01
            {
              OFFSET 3.4208 -0.773976 2.25975
              CHANNELS 6 Xposition Yposition Zposition Zrotation Xrotation Yrotation
              End Site
              {
                OFFSET 0 0 0
              }
            }
            JOINT Bip01_HeadNub
            {
              OFFSET 6.74789 0 0
              CHANNELS 6 Xposition Yposition Zposition Zrotation Xrotation Yrotation
              End Site
              {
                OFFSET 0 0 0
              }
            }
          }
        }
      }
    }
  }
}
MOTION
Frames:	4
Frame Time:	0.0333333
3.43693 46.1799 0.094427 53.6268 -89.1131 102.247 0 0 0 -89.9965 -3.50835e-015 -90 -2.28979 -2.39919 -2.98023e-008 177.324 83.8743 55.6485 9.67405 8.88178e-016 7.6294e-006 11.4863 0.995904 -10.5293 10.5192 5.96046e-008 0 16.5777 -0.474269 -11.3118 8.16754 -2.86102e-006 1.14441e-005 19.9373 1.87746 11.356 2.25378 -0.00469208 -0.000421643 -4.69746 4.85993 -3.04149 -2.36821 -0.380262 -2.22721 21.2898 -16.5078 -169.883 9.47902 3.8147e-006 0 -35.4872 -2.02121e-006 -2.90562e-007 8.42616 -3.8147e-006 0 -27.114 -8.17565 -12.5263 1.4015 3.97627 -1.33794 85.5365 -41.2629 29.201 2.94554 -3.55272e-015 7.10543e-015 -18.3475 -8.37746e-006 8.25064e-006 2.52656 -1.90735e-006 7.10543e-015 7.18694e-007 9.97936e-006 3.40932e-007 2.0973 6.93128 0.0278103 65.2585 6.6876e-007 -3.46964e-007 3.07142 -3.8147e-006 2.38419e-007 -65.3707 -7.20237e-007 -1.32429e-006 3.37999 -1.90735e-006 8.88179e-016 -5.81749e-007 -3.59237e-008 7.04914e-008 -2.11756 0.0220203 2.49703 27.6338 8.92068 -164.594 9.47902 3.8147e-006 1.77636e-015 -40.8908 -1.29697e-005 -1.02634e-005 8.42617 -3.8147e-006 -1.77636e-015 -39.4291 2.3715 4.7632 1.4015 3.97627 1.33796 71.6153 45.8602 -19.575 2.94553 0 1.90735e-006 -20.3981 -4.14629e-007 9.11026e-006 2.52656 1.90735e-006 -3.55272e-015 179.96 -1.46652e-005 1.76752e-005 2.0973 6.93128 -0.0277901 54.3342 9.75624e-007 -4.26394e-007 3.07141 0 1.77636e-015 -76.4205 2.78094e-006 9.28413e-006 3.38 5.72204e-006 1.77636e-015 179.96 -3.05426e-005 -7.84726e-006 6.1717 -0.00487328 -1.11022e-016 -8.01026 1.68411 -7.18673 6.15895 -2.02442 -2.78436 -178.044 9.65008 77.6464 3.43915 3.8147e-006 0 78.7843 65.3126 -62.1786 10.2529 -7.62939e-006 -7.10544e-015 -63.5646 1.35906 0.854426 16.2051 -3.8147e-006 -7.10543e-015 28.3297 0.208269 17.6917 2.2539 2.1992 0.19204 68.5871 0.527058 12.2934 2.17803 -1.99632 -0.219288 -71.0444 -0.181695 7.61482 3.3071 1.42801 0.173912 22.0312 1.23167 14.5521 3.93639 -0.769841 0.580935 -1.22239 0.405737 39.3824 6.15897 -2.02445 2.78458 1.29162 6.64551 -102.246 3.43915 0 -3.8147e-006 -93.1716 -78.3153 -75.5175 10.2529 -3.8147e-006 0 67.8409 -5.28637 6.96414 16.2051 -3.55272e-015 -5.72205e-006 -25.4503 -4.51988 22.7683 3.30715 -1.42801 0.17389 -22.0449 -1.13374 0.552346 2.25392 -2.19923 0.192026 -68.6228 -0.533589 8.29406 2.17805 1.99631 -0.219315 71.0447 0.182698 6.61525 3.93641 0.769834 0.580936 0.555006 -2.50247 19.3748 7.02382 -0.812372 8.88179e-016 10.998 -8.90937e-007 1.05486e-005 1.54248 -7.6294e-006 -8.88179e-016 -15.3807 -7.64955 7.65986 2.10593 -0.356762 0.0332308 -69.5194 -0.0234833 -179.966 3.42079 -0.77397 -2.25959 154.422 1.41804 177.05 3.42079 -0.773979 2.25975 -25.7806 1.4477 -12.7099 6.74789 -1.90735e-006 0 -2.94819e-006 1.45355e-008 -2.85231e-008 
3.26306 47.2729 -0.145848 112.43 -88.8349 156.781 0 0 0 -89.6484 0.0388301 -90.2166 -2.28979 -2.39919 -2.97982e-008 176.674 84.254 46.2598 9.67405 -2.22045e-015 7.6294e-006 11.493 1.01677 -1.30195 10.5192 5.96046e-008 1.42109e-014 10.0188 2.40486 4.11936 8.16754 -2.86102e-006 1.14441e-005 11.1032 3.39988 19.7485 2.25378 -0.00418938 -0.00997849 -0.729303 4.24821 -2.99781 -2.374 -0.199459 -2.23455 12.1893 -19.4212 -169.769 9.47902 3.8147e-006 -8.88179e-015 -37.3592 -2.34241e-006 -3.87341e-007 8.42616 -3.8147e-006 -1.06581e-014 -27.5668 -7.08497 -13.6886 1.4015 3.97627 -1.33794 85.5365 -41.2629 29.201 2.94554 7.10543e-015 1.42109e-014 -18.3475 -8.343e-006 8.25986e-006 2.52656 -1.90735e-006 7.10543e-015 7.18694e-007 9.97936e-006 3.40932e-007 2.0973 6.93128 0.0278104 65.9259 6.24514e-007 -4.42419e-007 3.07142 -3.8147e-006 2.38419e-007 -64.8246 -0.0221399 0.010405 3.37999 -1.90735e-006 -5.32907e-015 -5.81749e-007 -3.59237e-008 7.04914e-008 -2.12667 0.153544 2.49388 14.0936 9.04011 -164.397 9.47902 3.8147e-006 1.77636e-015 -46.9869 -1.91692e-005 -5.24539e-006 8.42617 -3.8147e-006 -3.90799e-014 -38.4853 3.59813 6.57952 1.4015 3.97627 1.33796 71.6138 45.8608 -19.5729 2.94553 1.42109e-014 1.90735e-006 -20.3981 -3.49275e-007 9.38873e-006 2.52656 1.90735e-006 2.30926e-013 179.96 -1.46649e-005 1.76747e-005 2.0973 6.93128 -0.0277901 54.3342 7.09849e-006 8.04313e-006 3.07141 -7.10543e-015 0 -76.4205 3.11832e-006 9.4101e-006 3.38 5.72204e-006 -1.77636e-014 179.96 -3.05418e-005 -7.84705e-006 6.1717 -0.00487328 -1.87642e-012 -2.1512 0.74567 -6.0262 6.15895 -2.02442 -2.78436 -178.248 8.56307 77.6634 3.43915 3.8147e-006 4.54748e-013 65.8064 70.0506 -73.0162 10.2529 -7.62939e-006 -1.77636e-013 -42.8875 4.12684 9.85619 16.2051 -3.8147e-006 -7.10544e-015 26.7224 -1.57479 25.0531 2.2539 2.1992 0.19204 67.0661 1.39829 9.83974 2.17803 -1.99632 -0.219288 -71.0382 -0.145813 8.58077 3.3071 1.42801 0.173912 20.363 1.99274 12.8544 3.93639 -0.769841 0.580935 -2.58669 1.00105 29.6213 6.15897 -2.02445 2.78458 1.07293 5.54396 -102.434 3.43915 -2.84217e-014 -3.8147e-006 -88.3315 -83.0362 -94.2159 10.2529 -3.8147e-006 2.23821e-013 46.8038 -7.22391 14.823 16.2051 1.42109e-013 -5.72205e-006 -24.4285 -0.937802 31.2678 3.30715 -1.42801 0.17389 -22.0683 -1.09711 1.22053 2.25392 -2.19923 0.192026 -66.8133 -0.0318338 8.57117 2.17805 1.99631 -0.219315 71.0388 0.126957 8.89685 3.93641 0.769833 0.580936 0.549981 -2.5526 13.1942 7.02382 -0.812372 -2.70375e-009 10.998 -9.40391e-007 1.05122e-005 1.54248 -7.6294e-006 -1.77636e-014 -15.3984 -7.29179 8.06812 2.10593 -0.356762 0.0332308 -71.2495 -0.0230102 -179.967 3.42079 -0.77397 -2.25959 165.903 0.11413 173.175 3.42079 -0.773979 2.25975 -13.6001 1.78249 -14.4035 6.74789 -1.90735e-006 -1.11022e-015 -2.94819e-006 1.45355e-008 -2.85231e-008 
3.06453 48.4148 -0.372984 135.83 -87.9319 176.068 0 0 0 -89.3026 0.0492001 -90.4613 -2.28979 -2.39919 -2.9791e-008 177.171 84.4588 36.2394 9.67405 -1.9984e-015 7.6294e-006 11.4948 1.01018 7.47156 10.5192 5.96046e-008 0 3.44707 4.62466 13.9587 8.16754 -2.86102e-006 1.14441e-005 3.39151 4.49758 23.6828 2.25378 -0.00369894 -0.0193523 3.4627 3.63726 -2.88618 -2.36587 -0.00954185 -2.24245 3.08356 -22.4363 -169.747 9.47902 3.8147e-006 -1.42109e-014 -38.6594 -3.09943e-006 1.01507e-007 8.42616 -3.8147e-006 -2.13163e-014 -28.6067 -5.87741 -15.042 1.4015 3.97627 -1.33794 85.5365 -41.2629 29.201 2.94554 0 1.06581e-014 -18.3475 -8.25796e-006 8.28947e-006 2.52656 -1.90735e-006 0 7.18694e-007 9.97936e-006 3.40932e-007 2.0973 6.93128 0.0278104 67.7847 5.34106e-007 -5.35409e-007 3.07142 -3.8147e-006 2.38419e-007 -63.3132 -0.0224775 0.011297 3.37999 -1.90735e-006 -9.99201e-015 -5.81749e-007 -3.59237e-008 7.04914e-008 -2.12737 0.292622 2.48993 0.0885583 9.22017 -164.106 9.47902 3.8147e-006 0 -52.904 -1.16926e-005 -1.28073e-005 8.42617 -3.8147e-006 -7.4607e-014 -38.3906 4.82164 8.49129 1.4015 3.97627 1.33796 71.6124 45.8614 -19.5707 2.94553 1.42109e-014 1.90735e-006 -20.3981 -2.73956e-007 9.76821e-006 2.52656 1.90735e-006 2.27374e-013 179.96 -1.46646e-005 1.7674e-005 2.0973 6.93128 -0.0277902 54.3342 4.48911e-006 1.1257e-005 3.07141 -1.42109e-014 5.32907e-015 -76.4205 3.38753e-006 9.70456e-006 3.38 5.72204e-006 -3.90799e-014 179.96 -3.05409e-005 -7.84692e-006 6.1717 -0.00487328 -5.61073e-012 4.03156 -0.119008 -4.67221 6.15895 -2.02442 -2.78436 -178.456 7.44355 77.6779 3.43915 3.8147e-006 -7.10543e-015 52.0637 75.6703 -84.2111 10.2529 -7.62939e-006 -3.19745e-013 -26.6391 6.32389 16.3392 16.2051 -3.8147e-006 2.34479e-013 25.9424 -3.17478 28.1178 2.2539 2.1992 0.19204 65.6119 2.31427 7.45556 2.17803 -1.99632 -0.219288 -71.0274 -0.125374 8.75054 3.3071 1.42801 0.173912 18.749 2.78601 11.2107 3.93639 -0.76984 0.580936 -3.80686 1.79968 20.063 6.15897 -2.02445 2.78458 0.858008 4.53139 -102.524 3.43915 -9.9476e-014 -3.8147e-006 -113.588 -87.4454 -144.373 10.2529 -3.8147e-006 6.82121e-013 29.8218 -8.61912 20.1732 16.2051 1.27756e-011 -5.72205e-006 -24.6069 1.83524 34.8724 3.30715 -1.42801 0.17389 -22.0907 -1.10213 1.06412 2.25392 -2.19923 0.192026 -65.0756 0.15663 8.20832 2.17805 1.99631 -0.219315 71.0121 0.136685 9.57133 3.93641 0.769833 0.580936 0.551182 -2.57675 7.87341 7.02382 -0.812372 -6.01022e-009 10.998 -9.36631e-007 1.04677e-005 1.54248 -7.6294e-006 -3.55271e-014 -15.5494 -6.85188 8.54665 2.10593 -0.356762 0.0332308 -72.946 -0.0224762 -179.968 3.42079 -0.77397 -2.25959 174.836 -0.945147 169.588 3.42079 -0.773979 2.25975 -3.93111 2.03438 -15.549 6.74789 -1.90735e-006 -8.88179e-016 -2.94819e-006 1.45355e-008 -2.85231e-008 
2.84973 49.6037 -0.598043 145.557 -86.8607 -178.325 0 0 0 -88.9426 0.0398382 -90.7236 -2.28979 -2.39919 -2.97859e-008 177.957 84.4631 26.8074 9.67405 -8.99281e-015 7.6294e-006 11.5098 0.986811 15.0522 10.5192 5.96046e-008 0 -2.1055 6.18121 19.6454 8.16754 -2.86102e-006 1.14441e-005 -2.71329 5.31319 24.7191 2.25378 -0.0032011 -0.0288188 7.85302 3.03403 -2.69819 -2.34151 0.18696 -2.25055 -6.27527 -25.545 -169.914 9.47902 3.8147e-006 -1.95399e-014 -39.7062 -2.81889e-006 -6.31521e-007 8.42616 -3.8147e-006 -2.13163e-014 -29.9098 -4.53986 -16.5382 1.4015 3.97627 -1.33794 85.5365 -41.2629 29.201 2.94554 1.06581e-014 3.55272e-015 -18.3475 -8.13054e-006 8.33389e-006 2.52656 -1.90735e-006 7.10543e-015 7.18694e-007 9.97936e-006 3.40932e-007 2.0973 6.93128 0.0278104 70.6571 3.8207e-007 -6.19954e-007 3.07142 -3.8147e-006 2.38419e-007 -60.9492 -0.0159617 0.00886478 3.37999 -1.90735e-006 -9.32588e-015 -5.81749e-007 -3.59237e-008 7.04914e-008 -2.11826 0.439515 2.4855 -14.4323 9.4102 -163.726 9.47902 3.8147e-006 0 -58.847 -1.00597e-005 -1.44013e-005 8.42617 -3.8147e-006 -9.9476e-014 -38.7831 5.95304 10.378 1.4015 3.97627 1.33796 71.6109 45.8619 -19.5686 2.94553 2.13163e-014 1.90735e-006 -20.3981 -1.67472e-007 1.02266e-005 2.52656 1.90735e-006 2.30926e-013 179.96 -1.46643e-005 1.76733e-005 2.0973 6.93128 -0.0277902 54.3342 -7.30172e-007 1.78958e-005 3.07141 -1.42109e-014 3.55271e-015 -76.4205 3.5805e-006 1.01467e-005 3.38 5.72204e-006 -4.61853e-014 179.96 -3.054e-005 -7.84686e-006 6.1717 -0.00487328 -1.13165e-011 10.5206 -0.865195 -3.14681 6.15895 -2.02442 -2.78436 -178.671 6.28529 77.6879 3.43915 3.8147e-006 -4.54748e-013 36.4517 81.9003 -92.4748 10.2529 -7.62939e-006 -3.12639e-013 -14.491 7.94401 20.7419 16.2051 -3.8147e-006 0 25.6678 -4.75412 28.5449 2.2539 2.1992 0.192039 64.0386 3.40376 4.12888 2.17803 -1.99632 -0.219288 -71.0166 -0.104705 8.92198 3.3071 1.42801 0.173912 17.5634 3.34847 8.54411 3.93639 -0.76984 0.580936 -4.68013 2.49972 10.9959 6.15897 -2.02445 2.78458 0.653471 3.60317 -102.54 3.43915 -1.7053e-013 -3.8147e-006 160.663 -85.7618 105.746 10.2529 -3.8147e-006 4.54748e-013 16.8128 -9.59539 23.5446 16.2051 -4.1922e-013 -5.72205e-006 -25.2871 4.23378 35.5027 3.30715 -1.42801 0.17389 -22.0599 -1.09009 0.090381 2.25392 -2.19923 0.192026 -63.3446 0.237213 7.00043 2.17805 1.99631 -0.219315 71.0205 0.125191 9.12753 3.93641 0.769833 0.580936 0.550115 -2.60126 2.49984 7.02382 -0.812372 -9.14136e-009 10.998 -8.69998e-007 1.04256e-005 1.54248 -7.6294e-006 -5.15144e-014 -15.7708 -6.23641 9.04768 2.10593 -0.356762 0.0332308 -74.6591 -0.0219116 -179.97 3.42079 -0.77397 -2.25959 -178.223 -1.80228 166.243 3.42079 -0.773979 2.25975 3.74591 2.2252 -16.2672 6.74789 -1.90735e-006 -8.88179e-016 -2.94819e-006 1.45355e-008 -2.85231e-008 
